<svg id="Capa_1" fill="white" data-name="Capa 1" xmlns="http://www.w3.org/2000/svg" viewBox="0 0 47.83 14.73"><polygon points="19.15 0.24 16.72 14.51 20.61 14.51 23.04 0.24 19.15 0.24"/><path d="M13.46,16.82,9.65,26.54l-.4-1.46a15.29,15.29,0,0,0-5.39-5.92l3.48,11.9h4.12l6.12-14.24Z" transform="translate(0 -16.55)"/><path d="M7.77,17.84a1.56,1.56,0,0,0-1.69-1.16h-6L0,17c4.69,1.14,7.8,3.88,9.08,7.18Z" transform="translate(0 -16.55)"/><path d="M30.92,19.53a7.12,7.12,0,0,1,2.91.55l.35.17.53-3.1a10,10,0,0,0-3.48-.6c-3.84,0-6.55,1.94-6.57,4.71,0,2,1.93,3.2,3.4,3.88s2,1.14,2,1.77c0,.95-1.21,1.39-2.33,1.39a8.08,8.08,0,0,1-3.66-.75l-.5-.22L23,30.52a12.35,12.35,0,0,0,4.34.76c4.08,0,6.74-1.91,6.77-4.88,0-1.62-1-2.85-3.27-3.87-1.36-.66-2.19-1.1-2.18-1.77S29.4,19.53,30.92,19.53Z" transform="translate(0 -16.55)"/><path d="M44.69,16.82h-3a1.92,1.92,0,0,0-2,1.18L33.87,31.07H38l.81-2.14h5c.12.49.48,2.13.48,2.13h3.6ZM39.89,26l1.55-4s.32-.82.52-1.36l.26,1.23s.75,3.41.9,4.12Z" transform="translate(0 -16.55)"/></svg>